<svg width="3000" height="3001" viewBox="0 0 3000 3001" fill="none" xmlns="http://www.w3.org/2000/svg">
<path fill-rule="evenodd" clip-rule="evenodd" d="M2242.36 262.346C2177.67 750.438 2276.65 1258.95 2332 1455.23L2332.98 1455.42L2465.78 1956.54C2332.45 2223.5 1773.89 2363.83 1543.26 2404.9C1485.6 2449.39 1522.84 2513.28 1579.29 2517.85C2537.86 2312.49 2581.1 1977.07 2581.1 1942.85C2581.1 1919.19 2534.81 1771.65 2492.57 1637L2492.56 1636.97C2474.4 1579.08 2456.99 1523.59 2444.33 1481.34C2740.97 1561.52 2946.62 1712.49 2991.11 1915.35C3080.23 2321.69 2488.99 2782.36 1670.54 2944.29C852.092 3106.21 116.352 2908.07 27.2317 2501.73C-20.1383 2285.74 124.732 2054.39 393.792 1860.72C392.932 1824.78 351.092 1636.14 318.472 1489.01V1489C301.382 1411.97 286.832 1346.33 281.992 1319.93C267.582 1241.21 152.262 943.445 80.1917 827.076C22.5317 733.981 0.911621 679.904 0.911621 642.255C-13.4984 508.774 139.292 254.816 721.632 101.483C1303.98 -51.85 1785.9 3.36813 1954.07 50.1438C2190.47 140.501 2238.76 211.006 2242.36 262.346ZM2444.2 1481.31C2444.24 1481.32 2444.29 1481.33 2444.33 1481.34L2444.2 1480.93V1481.31ZM2333.04 1455.43C2333.02 1455.43 2333 1455.42 2332.98 1455.42L2332.45 1453.41L2332.51 1453.43L2333.04 1455.43ZM2094.61 450.589C2106.14 371.185 2048.97 362.742 2018.94 368.447C1384.7 864.725 429.742 717.553 346.862 700.44C280.552 686.75 251.962 690.172 245.962 693.595C182.532 731.928 219.532 778.019 245.962 796.273C1125.24 996.154 1844.76 649.101 2094.61 450.589Z" fill="url(#paint0_linear_4_6)"/>
<defs>
<linearGradient id="paint0_linear_4_6" x1="177.491" y1="122.019" x2="2863.57" y2="2823.89" gradientUnits="userSpaceOnUse">
<stop stop-color="#00A599"/>
<stop offset="1" stop-color="#0065C5"/>
</linearGradient>
</defs>
</svg>
